<svg width="16" height="16" viewBox="0 0 16 16" fill="none" xmlns="http://www.w3.org/2000/svg">
<path d="M15.3541 6.53113H14.75V6.5H8V9.5H12.2386C11.6203 11.2464 9.95862 12.5 8 12.5C5.51487 12.5 3.5 10.4851 3.5 8C3.5 5.51487 5.51487 3.5 8 3.5C9.14713 3.5 10.1908 3.93275 10.9854 4.63962L13.1068 2.51825C11.7673 1.26987 9.9755 0.5 8 0.5C3.85812 0.5 0.5 3.85812 0.5 8C0.5 12.1419 3.85812 15.5 8 15.5C12.1419 15.5 15.5 12.1419 15.5 8C15.5 7.49713 15.4482 7.00625 15.3541 6.53113Z" fill="#FFC107"/>
</svg>
