<svg width="109" height="105" viewBox="0 0 109 105" fill="none" xmlns="http://www.w3.org/2000/svg">
<circle cx="58" cy="54" r="51" fill="#A1206C"/>
<g filter="url(#filter0_d)">
<path d="M7 54C7 25.8335 29.8335 3 58 3" stroke="white" stroke-width="6"/>
</g>
<path d="M50.4681 48.7864C50.2602 51.5253 49.7482 54.2333 48.9415 56.8616C48.1855 59.2986 47.6739 61.8031 47.414 64.3391C47.414 65.5085 47.5836 66.0932 47.9229 66.0932C48.8249 65.8311 49.6963 65.4756 50.5227 65.0325L51.197 64.7063L52.1602 66.65C51.8198 66.9493 51.3658 67.3264 50.7982 67.7811C49.8025 68.4787 48.7432 69.0831 47.6341 69.5865C46.3126 70.2914 44.8431 70.6825 43.3422 70.7289C42.7677 70.7592 42.1934 70.6681 41.6574 70.4618C41.1214 70.2555 40.636 69.9388 40.2335 69.5326C39.4457 68.6402 39.0411 67.4793 39.1057 66.2968C39.3046 63.8335 39.7752 61.3991 40.5091 59.0368C41.2055 56.8261 41.68 54.5529 41.9256 52.2502C41.9175 50.6611 41.4024 49.115 40.4536 47.8319L39.9588 47.1654L40.0143 46.4311C42.0022 45.8806 45.2394 45.6042 49.7259 45.6019C50.2207 46.1582 50.4681 47.2197 50.4681 48.7864ZM44.0165 39.487C43.634 39.1036 43.3361 38.6458 43.1419 38.1428C42.9476 37.6397 42.8611 37.1022 42.8879 36.5644C42.893 35.9438 43.0347 35.3317 43.3032 34.7707C43.5717 34.2097 43.9605 33.7131 44.4427 33.3155C45.4121 32.4089 46.6983 31.9074 48.0329 31.9156C48.6104 31.8818 49.1888 31.9646 49.7328 32.1591C50.2768 32.3536 50.7751 32.6556 51.197 33.0467C51.5766 33.435 51.8723 33.8956 52.0662 34.4004C52.26 34.9052 52.348 35.4437 52.3248 35.9832C52.3136 36.6019 52.1634 37.2105 51.8851 37.7648C51.6068 38.3192 51.2073 38.8055 50.7155 39.1886C49.7357 40.0773 48.4551 40.572 47.1252 40.5755C46.5598 40.608 45.9935 40.5284 45.4597 40.3415C44.9258 40.1546 44.4351 39.864 44.0165 39.487Z" fill="white"/>
<path d="M55.6581 70.2262H54.5858C54.5858 68.4791 55.1223 65.1302 56.1952 60.1794C56.8766 57.3989 57.4138 54.5857 57.8045 51.751C57.7219 50.3101 57.1655 48.9353 56.2198 47.8356L55.711 47.1691L55.7664 46.4348C58.9808 45.7701 62.2647 45.4917 65.5467 45.6056C66.1399 46.6582 66.4166 47.8562 66.3444 49.0589C69.6183 46.5676 72.3833 45.3205 74.6394 45.3176C75.2525 45.2937 75.863 45.4072 76.4253 45.6496C76.9876 45.8921 77.4871 46.2572 77.8863 46.7175C78.719 47.6931 79.1568 48.9388 79.1154 50.2144C78.9364 52.6637 78.4977 55.0878 77.8062 57.4465C77.1489 59.6969 76.7157 62.0055 76.5129 64.3393C76.5129 65.5087 76.6644 66.0933 76.9672 66.0933C77.7983 65.8403 78.5935 65.4839 79.3337 65.0327L80.0213 64.7064L81.039 66.6502C80.6986 66.9495 80.2446 67.3265 79.6771 67.7813C78.6864 68.4719 77.6368 69.076 76.5402 69.5867C75.2822 70.2771 73.8787 70.6683 72.4411 70.7291C69.6902 70.7291 68.3147 69.1839 68.3147 66.0933C68.5001 63.6611 68.9241 61.2525 69.5807 58.9013C70.2061 56.6858 70.6341 54.4204 70.8599 52.1312C70.8599 51.1254 70.5368 50.6225 69.8968 50.6225C68.4616 50.7359 67.0815 51.2185 65.8936 52.0224C65.7733 52.6605 65.3974 54.3371 64.7658 57.0523C63.4446 62.8981 62.784 67.0319 62.784 69.4536C61.4635 69.9687 59.0882 70.2262 55.6581 70.2262Z" fill="white"/>
<defs>
<filter id="filter0_d" x="0" y="0" width="62" height="62" filterUnits="userSpaceOnUse" color-interpolation-filters="sRGB">
<feFlood flood-opacity="0" result="BackgroundImageFix"/>
<feColorMatrix in="SourceAlpha" type="matrix" values="0 0 0 0 0 0 0 0 0 0 0 0 0 0 0 0 0 0 127 0"/>
<feOffset dy="4"/>
<feGaussianBlur stdDeviation="2"/>
<feColorMatrix type="matrix" values="0 0 0 0 0 0 0 0 0 0 0 0 0 0 0 0 0 0 0.25 0"/>
<feBlend mode="normal" in2="BackgroundImageFix" result="effect1_dropShadow"/>
<feBlend mode="normal" in="SourceGraphic" in2="effect1_dropShadow" result="shape"/>
</filter>
</defs>
</svg>
