<svg width="33" height="30" viewBox="0 0 33 30" fill="none" xmlns="http://www.w3.org/2000/svg">
<path d="M8.78456 13.0413C8.62392 15.1576 8.22836 17.25 7.605 19.2808C7.0209 21.1638 6.62558 23.099 6.42475 25.0584C6.42475 25.962 6.55582 26.4137 6.81794 26.4137C7.51489 26.2113 8.18823 25.9366 8.82673 25.5942L9.34781 25.3421L10.092 26.844C9.82898 27.0753 9.47819 27.3666 9.03965 27.718C8.27029 28.257 7.45181 28.724 6.59482 29.113C5.57371 29.6576 4.43833 29.9598 3.27857 29.9957C2.83474 30.019 2.39096 29.9486 1.97679 29.7893C1.56263 29.6299 1.18757 29.3851 0.876588 29.0713C0.267862 28.3818 -0.0447581 27.4848 0.00518087 26.571C0.158873 24.6678 0.522472 22.7867 1.08951 20.9615C1.62767 19.2533 1.99428 17.4969 2.18404 15.7177C2.17778 14.4898 1.77977 13.2952 1.04665 12.3038L0.664349 11.7888L0.707205 11.2214C2.24322 10.7961 4.74452 10.5825 8.2111 10.5807C8.59341 11.0106 8.78456 11.8307 8.78456 13.0413ZM3.79965 5.85592C3.50406 5.55966 3.27392 5.20598 3.1238 4.81726C2.97369 4.42855 2.90686 4.01327 2.92756 3.59771C2.93149 3.11819 3.04099 2.64527 3.24844 2.21178C3.45589 1.77829 3.75633 1.39461 4.12889 1.08739C4.87792 0.386895 5.87176 -0.000634192 6.90297 0.00568782C7.34919 -0.0204311 7.79611 0.0435941 8.21646 0.193858C8.6368 0.344121 9.02176 0.57747 9.34781 0.879658C9.64108 1.17974 9.86956 1.53562 10.0194 1.92567C10.1692 2.31572 10.2372 2.7318 10.2192 3.14862C10.2106 3.62671 10.0945 4.09692 9.87945 4.52525C9.6644 4.95359 9.35571 5.32933 8.97571 5.62532C8.21868 6.31206 7.22922 6.69429 6.20163 6.69694C5.76475 6.72205 5.32719 6.66059 4.9147 6.51615C4.5022 6.37172 4.12309 6.14724 3.79965 5.85592Z" fill="#FFEAF7"/>
<path d="M12.7949 29.607H11.9663C11.9663 28.2571 12.3808 25.6694 13.2098 21.8441C13.7364 19.6957 14.1514 17.522 14.4533 15.3317C14.3895 14.2184 13.9595 13.1561 13.2289 12.3064L12.8357 11.7914L12.8785 11.224C15.3622 10.7105 17.8996 10.4954 20.4355 10.5833C20.8938 11.3966 21.1076 12.3224 21.0518 13.2516C23.5814 11.3267 25.7179 10.3631 27.4612 10.3608C27.9348 10.3423 28.4066 10.43 28.8411 10.6174C29.2756 10.8047 29.6615 11.0868 29.97 11.4425C30.6133 12.1963 30.9516 13.1588 30.9196 14.1444C30.7813 16.037 30.4423 17.9099 29.9081 19.7325C29.4001 21.4713 29.0655 23.2551 28.9088 25.0583C28.9088 25.9619 29.0258 26.4137 29.2598 26.4137C29.9019 26.2181 30.5164 25.9428 31.0883 25.5941L31.6196 25.342L32.4059 26.8439C32.1429 27.0752 31.7921 27.3665 31.3536 27.7179C30.5881 28.2515 29.7772 28.7182 28.9298 29.1129C27.9578 29.6463 26.8734 29.9485 25.7626 29.9956C23.637 29.9956 22.5742 28.8016 22.5742 26.4137C22.7175 24.5344 23.0451 22.6732 23.5524 20.8565C24.0357 19.1447 24.3664 17.3943 24.5408 15.6255C24.5408 14.8483 24.2912 14.4597 23.7966 14.4597C22.6877 14.5474 21.6214 14.9203 20.7035 15.5415C20.6105 16.0345 20.3201 17.33 19.8321 19.4279C18.8113 23.9448 18.3008 27.1388 18.3008 29.01C17.2805 29.408 15.4451 29.607 12.7949 29.607Z" fill="#FFEAF7"/>
</svg>
