<svg width="134" height="134" viewBox="0 0 134 134" fill="none" xmlns="http://www.w3.org/2000/svg">
<circle cx="67" cy="63" r="60" fill="#A1206C"/>
<g filter="url(#filter0_d)">
<path d="M127 63C127 96.1371 100.137 123 67 123C33.8629 123 7 96.1371 7 63C7 29.8629 33.8629 3 67 3" stroke="white" stroke-width="6"/>
</g>
<path d="M95.888 86.9996C99.7475 82.3559 102.432 76.8509 103.714 70.9503C104.996 65.0498 104.838 58.9272 103.254 53.1006C101.669 47.274 98.7043 41.9147 94.6105 37.4761C90.5166 33.0376 85.4139 29.6504 79.7341 27.601C74.0543 25.5515 67.9644 24.9003 61.9797 25.7022C55.9949 26.5042 50.2913 28.7358 45.3514 32.2082C40.4115 35.6806 36.3806 40.2918 33.5997 45.6515C30.8188 51.0113 29.3697 56.962 29.375 63.0002C29.377 71.7781 32.4703 80.2749 38.1121 86.9996L38.0583 87.0453C38.2465 87.271 38.4615 87.4645 38.655 87.6876C38.8968 87.9644 39.1575 88.2251 39.4075 88.4938C40.16 89.3108 40.934 90.0956 41.7456 90.832C41.9928 91.0577 42.2481 91.2673 42.4981 91.4823C43.3581 92.2241 44.2423 92.9282 45.1587 93.584C45.277 93.6646 45.3845 93.7694 45.5027 93.8527V93.8205C51.7971 98.2499 59.306 100.627 67.0027 100.627C74.6994 100.627 82.2083 98.2499 88.5027 93.8205V93.8527C88.621 93.7694 88.7258 93.6646 88.8467 93.584C89.7605 92.9255 90.6473 92.2241 91.5073 91.4823C91.7573 91.2673 92.0126 91.055 92.2598 90.832C93.0715 90.0929 93.8455 89.3108 94.598 88.4938C94.8479 88.2251 95.1059 87.9644 95.3505 87.6876C95.5413 87.4645 95.759 87.271 95.9471 87.0426L95.888 86.9996ZM67 41.5002C69.3919 41.5002 71.7301 42.2095 73.7189 43.5384C75.7078 44.8672 77.2578 46.756 78.1732 48.9659C79.0885 51.1757 79.328 53.6074 78.8614 55.9533C78.3948 58.2993 77.2429 60.4542 75.5516 62.1455C73.8602 63.8369 71.7054 64.9887 69.3594 65.4553C67.0134 65.922 64.5818 65.6825 62.3719 64.7671C60.1621 63.8518 58.2733 62.3017 56.9444 60.3129C55.6156 58.3241 54.9063 55.9859 54.9063 53.594C54.9063 50.3865 56.1804 47.3104 58.4484 45.0424C60.7165 42.7744 63.7926 41.5002 67 41.5002ZM45.5188 86.9996C45.5654 83.4708 46.9995 80.1023 49.5107 77.6227C52.022 75.1432 55.4084 73.752 58.9375 73.7502H75.0625C78.5916 73.752 81.9781 75.1432 84.4893 77.6227C87.0005 80.1023 88.4346 83.4708 88.4812 86.9996C82.5871 92.311 74.9342 95.2504 67 95.2504C59.0658 95.2504 51.4129 92.311 45.5188 86.9996Z" fill="#FFF3FB"/>
<defs>
<filter id="filter0_d" x="0" y="0" width="134" height="134" filterUnits="userSpaceOnUse" color-interpolation-filters="sRGB">
<feFlood flood-opacity="0" result="BackgroundImageFix"/>
<feColorMatrix in="SourceAlpha" type="matrix" values="0 0 0 0 0 0 0 0 0 0 0 0 0 0 0 0 0 0 127 0"/>
<feOffset dy="4"/>
<feGaussianBlur stdDeviation="2"/>
<feColorMatrix type="matrix" values="0 0 0 0 0 0 0 0 0 0 0 0 0 0 0 0 0 0 0.25 0"/>
<feBlend mode="normal" in2="BackgroundImageFix" result="effect1_dropShadow"/>
<feBlend mode="normal" in="SourceGraphic" in2="effect1_dropShadow" result="shape"/>
</filter>
</defs>
</svg>
