<svg width="224" height="62" viewBox="0 0 224 62" fill="none" xmlns="http://www.w3.org/2000/svg">
<path d="M4.28863 45.3254C4.28863 45.3254 4.46224 37.5222 4.82002 21.9146C4.82002 15.7205 4.44738 11.7347 3.70211 9.95714L0 4.34839L0.234608 3.25173C5.29217 2.33295 10.4338 1.93531 15.5756 2.0653C16.5289 3.49453 17.0055 6.14356 17.0055 10.0124C17.0055 13.8812 16.7549 19.0714 16.2536 25.5831C15.7492 32.104 15.4986 37.1386 15.5017 40.6867C15.5048 44.2348 16.3615 46.0032 18.0718 45.9917C19.0705 45.9917 20.5247 45.1946 22.4344 43.6004C24.2758 42.0642 25.9193 40.3132 27.3283 38.3864C28.4278 27.2625 28.9776 19.7584 28.9776 15.8743C29.0102 12.1921 28.4537 8.52764 27.3283 5.01467C29.977 3.68441 34.3391 2.6775 40.4147 1.99396C41.0442 4.44346 41.3206 6.96745 41.2358 9.49223C41.0296 15.1132 40.5159 20.7193 39.6968 26.2862C38.6708 34.2609 38.1578 39.5413 38.1578 42.1274C38.1578 44.7136 38.9214 46.002 40.4487 45.9928C41.9885 45.9928 44.0609 44.5663 46.6658 41.7132C49.533 38.4863 51.9488 34.8989 53.8495 31.0457C55.8248 27.4632 57.0639 23.535 57.4965 19.4842L49.5198 14.8996C49.7853 12.2568 50.5105 9.67825 51.6642 7.27589C52.346 5.6721 53.3566 4.22288 54.6331 3.01813L55.9891 1.99281C58.5559 1.82106 61.0871 2.65542 63.0274 4.31272C63.8067 5.0099 64.4281 5.85989 64.8512 6.80765C65.2744 7.7554 65.4898 8.77978 65.4837 9.81444C65.3147 14.6066 64.2784 19.331 62.4233 23.7673C60.4447 28.9781 57.9201 33.9734 54.89 38.6729C52.1084 43.0726 48.6753 47.042 44.7033 50.4508C40.891 53.6783 37.3781 55.2905 34.1648 55.2874C33.1679 55.2597 32.191 55.0065 31.3103 54.5473C30.4297 54.0882 29.6691 53.4357 29.0878 52.6407C27.5484 50.7021 26.739 48.3011 26.7969 45.8444C24.8654 48.5177 22.5 50.8622 19.795 52.7845C17.753 54.3086 15.284 55.1821 12.7204 55.2874C11.5896 55.2791 10.4745 55.0267 9.45433 54.5479C8.43417 54.0692 7.53398 53.376 6.8177 52.5176C5.0757 50.5214 4.17171 47.9506 4.28863 45.3254Z" fill="white"/>
<path d="M64.4932 41.6392C64.4932 35.4812 66.3872 30.6204 70.1754 27.057C71.8564 25.3689 73.863 24.0259 76.0783 23.1061C78.2935 22.1862 80.6733 21.7079 83.0788 21.6991C85.6856 21.5943 88.2534 22.3473 90.3739 23.8383C91.288 24.4921 92.026 25.3544 92.5243 26.3506C93.0225 27.3469 93.266 28.4471 93.2338 29.5564C93.3066 31.7089 92.6562 33.8251 91.3827 35.5794C90.2106 37.1564 88.6794 38.4433 86.9111 39.3377C83.8432 40.9053 80.5486 42.0028 77.142 42.5921L75.3274 42.8084C75.68 47.4382 77.6109 49.7516 81.1198 49.7486C82.4459 49.7229 83.7515 49.4225 84.951 48.8671C86.0768 48.4103 87.1406 47.8185 88.1182 47.1053L89.2548 46.2066L91.0508 48.5806C90.3449 49.3968 89.5315 50.1174 88.632 50.7232C87.5578 51.5313 86.4312 52.2701 85.2595 52.935C82.3279 54.5088 79.0338 55.3186 75.6922 55.2871C74.1337 55.3529 72.5812 55.0603 71.1586 54.4327C69.7359 53.8051 68.4825 52.8599 67.4985 51.6726C65.4918 49.2629 64.49 45.9185 64.4932 41.6392ZM75.2523 39.1939C77.5938 38.8641 79.7454 37.7452 81.338 36.0293C82.8996 34.2222 83.7111 31.905 83.6114 29.538C83.6114 26.8767 82.8051 25.546 81.1926 25.546C79.2868 25.546 77.8205 27.1345 76.7937 30.3113C75.8175 33.1768 75.2976 36.1729 75.2523 39.1939Z" fill="white"/>
<path d="M130.476 49.9122C126.21 53.4995 122.459 55.2916 119.222 55.2885C115.985 55.2854 114.122 53.7089 113.632 50.5589C112.18 52.0115 110.471 53.1933 108.588 54.0468C107.065 54.792 105.399 55.2151 103.698 55.2885C102.493 55.2816 101.308 54.9983 100.235 54.4612C99.1622 53.9241 98.2326 53.1481 97.5205 52.1953C95.8071 50.1239 94.952 46.9233 94.9551 42.5934C94.9551 36.0978 96.3604 30.9916 99.171 27.2747C101.982 23.5578 105.152 21.6997 108.683 21.7005C111.831 21.5949 114.94 22.4152 117.609 24.056C118.962 17.8623 119.747 11.5621 119.955 5.23095L119.57 2.13889C123.124 0.89255 126.867 0.242113 130.641 0.214844C131.045 1.12126 131.245 2.10254 131.228 3.09171C131.228 6.68818 130.122 13.9881 127.91 24.9916C125.711 35.9866 124.611 43.4542 124.611 47.3944C124.611 48.5716 124.885 49.1562 125.432 49.1562C126.45 48.8289 127.414 48.3562 128.292 47.7534L129.044 47.3219L130.476 49.9122ZM112.349 26.0514C110.589 26.0514 109.068 27.7538 107.785 31.1585C106.545 34.3773 105.9 37.7868 105.878 41.2275C105.878 44.5493 106.117 46.6771 106.593 47.6107C106.766 48.0294 107.063 48.3872 107.447 48.6374C107.83 48.8877 108.281 49.0187 108.742 49.0135C110.564 48.9461 112.301 48.2379 113.636 47.0181C113.783 45.0533 114.907 38.5083 117.008 27.3829C115.589 26.5737 113.989 26.1167 112.349 26.0514Z" fill="white"/>
<path d="M155.84 44.7331C155.85 46.2425 155.472 47.73 154.742 49.0585C154.012 50.387 152.953 51.5138 151.662 52.335C148.891 54.2989 145.549 55.3344 142.131 55.2878C139.141 55.4428 136.178 54.6689 133.662 53.0761C131.582 51.6016 130.544 50.2951 130.547 49.1566C130.547 48.4731 131.427 47.3584 133.186 45.8126C134.442 44.5667 135.954 43.5981 137.621 42.9714C140.462 45.2253 142.602 48.2153 143.799 51.602C145.654 51.4585 146.583 50.5954 146.585 49.0128C146.585 46.7473 144.551 43.5348 140.485 39.3753C136.418 35.2157 134.389 31.9073 134.396 29.4501C134.372 28.2857 134.673 27.1371 135.268 26.129C135.862 25.1209 136.727 24.2919 137.768 23.732C140.247 22.3216 143.078 21.6178 145.943 21.6998C149.132 21.6998 151.527 22.2571 153.128 23.3718C153.889 23.856 154.511 24.5235 154.935 25.3106C155.358 26.0976 155.569 26.9781 155.547 27.8678C155.547 29.765 154.013 32.3841 150.946 35.7251C151.298 36.0703 151.753 36.5306 152.302 37.0922C153.147 38.085 153.878 39.1654 154.483 40.3143C155.315 41.6482 155.783 43.1702 155.84 44.7331ZM148.619 33.1359C150.717 31.3714 151.768 29.6273 151.772 27.9035C151.776 26.1796 150.571 25.3166 148.157 25.3143C147.155 25.277 146.164 25.52 145.298 26.0151C144.986 26.1635 144.718 26.3892 144.522 26.6699C144.326 26.9506 144.208 27.2766 144.18 27.6158C144.18 28.6944 145.28 30.2168 147.48 32.1831L148.619 33.1359Z" fill="white"/>
<path d="M223.994 55.107C223.994 56.9345 223.254 58.6869 221.937 59.9791C220.619 61.2713 218.833 61.9974 216.97 61.9977H167.816C166.894 61.9975 165.981 61.8192 165.129 61.4728C164.277 61.1264 163.503 60.6187 162.852 59.9788C162.2 59.339 161.683 58.5794 161.33 57.7434C160.978 56.9075 160.796 56.0117 160.797 55.107V6.89069C160.797 5.98609 160.978 5.09029 161.33 4.25444C161.683 3.41858 162.2 2.65905 162.852 2.01919C163.504 1.37933 164.278 0.871687 165.129 0.525234C165.981 0.178782 166.894 0.000302186 167.816 0H216.975C218.837 0.00152443 220.621 0.727827 221.938 2.01938C223.254 3.31094 223.993 5.06214 223.994 6.88838V55.107Z" fill="#9B2B71"/>
<path d="M180.922 25.9731C180.645 29.5955 179.962 33.1771 178.888 36.6532C177.88 39.8763 177.199 43.1888 176.852 46.5428C176.852 48.0894 177.078 48.8627 177.53 48.8627C178.732 48.5161 179.893 48.0459 180.994 47.4599L181.893 47.0284L183.176 49.5991C182.723 49.995 182.118 50.4936 181.361 51.0951C180.035 52.0177 178.623 52.8171 177.146 53.4829C175.385 54.4152 173.427 54.9324 171.427 54.9938C170.662 55.0338 169.896 54.9134 169.182 54.6405C168.468 54.3677 167.821 53.9487 167.285 53.4116C166.235 52.2313 165.696 50.696 165.782 49.1319C166.047 45.8741 166.674 42.6544 167.652 39.5301C168.58 36.6062 169.212 33.5997 169.54 30.5543C169.529 28.4525 168.842 26.4077 167.578 24.7108L166.919 23.8293L166.993 22.8581C169.642 22.13 173.955 21.7645 179.933 21.7614C180.592 22.4971 180.922 23.901 180.922 25.9731ZM172.326 13.6739C171.816 13.1668 171.419 12.5614 171.16 11.8961C170.901 11.2307 170.786 10.5199 170.822 9.80857C170.829 8.98779 171.017 8.17829 171.375 7.43628C171.733 6.69427 172.251 6.03754 172.893 5.51168C174.185 4.31264 175.899 3.64931 177.677 3.66013C178.446 3.61542 179.217 3.72501 179.942 3.98222C180.667 4.23942 181.331 4.63884 181.893 5.1561C182.399 5.66975 182.793 6.27891 183.051 6.94655C183.309 7.6142 183.426 8.3264 183.396 9.03987C183.381 9.85821 183.18 10.6631 182.81 11.3962C182.439 12.1294 181.906 12.7726 181.251 13.2792C179.946 14.4547 178.24 15.109 176.468 15.1135C175.714 15.1565 174.96 15.0513 174.248 14.8041C173.537 14.5568 172.883 14.1726 172.326 13.6739Z" fill="white"/>
<path d="M187.837 54.3276H186.408C186.408 52.0169 187.123 47.5877 188.553 41.0399C189.46 37.3625 190.176 33.6418 190.697 29.8927C190.587 27.987 189.845 26.1687 188.585 24.7143L187.907 23.8328L187.981 22.8616C192.264 21.9825 196.64 21.6143 201.013 21.7649C201.803 23.157 202.172 24.7416 202.075 26.3322C206.437 23.0373 210.122 21.3879 213.128 21.384C213.944 21.3524 214.758 21.5025 215.507 21.8232C216.256 22.1438 216.922 22.6267 217.454 23.2356C218.563 24.5259 219.147 26.1733 219.091 27.8604C218.853 31.0999 218.268 34.3058 217.347 37.4255C216.471 40.4018 215.894 43.4551 215.624 46.5417C215.624 48.0883 215.826 48.8616 216.229 48.8616C217.337 48.5269 218.396 48.0556 219.382 47.4588L220.298 47.0273L221.654 49.5981C221.201 49.9939 220.596 50.4926 219.84 51.094C218.52 52.0074 217.121 52.8063 215.66 53.4818C213.984 54.3949 212.114 54.9123 210.199 54.9928C206.533 54.9928 204.701 52.949 204.701 48.8616C204.948 45.6448 205.513 42.4592 206.387 39.3495C207.221 36.4193 207.791 33.4232 208.092 30.3955C208.092 29.0653 207.661 28.4001 206.808 28.4001C204.896 28.5501 203.057 29.1885 201.475 30.2517C201.314 31.0956 200.813 33.3131 199.972 36.9042C198.212 44.6357 197.332 50.1029 197.332 53.3058C195.572 53.987 192.407 54.3276 187.837 54.3276Z" fill="white"/>
</svg>
